<svg id="visual" viewBox="0 0 900 600" width="900" height="600" xmlns="http://www.w3.org/2000/svg" xmlns:xlink="http://www.w3.org/1999/xlink" version="1.1"><rect x="0" y="0" width="900" height="600" fill="#001220"></rect><path d="M0 215L21.5 209C43 203 86 191 128.8 195C171.7 199 214.3 219 257.2 221.2C300 223.3 343 207.7 385.8 194.8C428.7 182 471.3 172 514.2 180C557 188 600 214 642.8 217.7C685.7 221.3 728.3 202.7 771.2 202.3C814 202 857 220 878.5 229L900 238L900 0L878.5 0C857 0 814 0 771.2 0C728.3 0 685.7 0 642.8 0C600 0 557 0 514.2 0C471.3 0 428.7 0 385.8 0C343 0 300 0 257.2 0C214.3 0 171.7 0 128.8 0C86 0 43 0 21.5 0L0 0Z" fill="#f92d1e"></path><path d="M0 138L21.5 138.8C43 139.7 86 141.3 128.8 148.2C171.7 155 214.3 167 257.2 167.7C300 168.3 343 157.7 385.8 149.3C428.7 141 471.3 135 514.2 142.3C557 149.7 600 170.3 642.8 180.2C685.7 190 728.3 189 771.2 179.5C814 170 857 152 878.5 143L900 134L900 0L878.5 0C857 0 814 0 771.2 0C728.3 0 685.7 0 642.8 0C600 0 557 0 514.2 0C471.3 0 428.7 0 385.8 0C343 0 300 0 257.2 0C214.3 0 171.7 0 128.8 0C86 0 43 0 21.5 0L0 0Z" fill="#f85327"></path><path d="M0 95L21.5 100.2C43 105.3 86 115.7 128.8 120.7C171.7 125.7 214.3 125.3 257.2 125.3C300 125.3 343 125.7 385.8 130.3C428.7 135 471.3 144 514.2 146.2C557 148.3 600 143.7 642.8 138.2C685.7 132.7 728.3 126.3 771.2 122.7C814 119 857 118 878.5 117.5L900 117L900 0L878.5 0C857 0 814 0 771.2 0C728.3 0 685.7 0 642.8 0C600 0 557 0 514.2 0C471.3 0 428.7 0 385.8 0C343 0 300 0 257.2 0C214.3 0 171.7 0 128.8 0C86 0 43 0 21.5 0L0 0Z" fill="#f66d35"></path><path d="M0 86L21.5 86.3C43 86.7 86 87.3 128.8 83.7C171.7 80 214.3 72 257.2 74.7C300 77.3 343 90.7 385.8 91.2C428.7 91.7 471.3 79.3 514.2 77.2C557 75 600 83 642.8 83C685.7 83 728.3 75 771.2 76.2C814 77.3 857 87.7 878.5 92.8L900 98L900 0L878.5 0C857 0 814 0 771.2 0C728.3 0 685.7 0 642.8 0C600 0 557 0 514.2 0C471.3 0 428.7 0 385.8 0C343 0 300 0 257.2 0C214.3 0 171.7 0 128.8 0C86 0 43 0 21.5 0L0 0Z" fill="#f58346"></path><path d="M0 25L21.5 29.5C43 34 86 43 128.8 49C171.7 55 214.3 58 257.2 58C300 58 343 55 385.8 54.7C428.7 54.3 471.3 56.7 514.2 52.3C557 48 600 37 642.8 35.3C685.7 33.7 728.3 41.3 771.2 45.8C814 50.3 857 51.7 878.5 52.3L900 53L900 0L878.5 0C857 0 814 0 771.2 0C728.3 0 685.7 0 642.8 0C600 0 557 0 514.2 0C471.3 0 428.7 0 385.8 0C343 0 300 0 257.2 0C214.3 0 171.7 0 128.8 0C86 0 43 0 21.5 0L0 0Z" fill="#f39659"></path></svg>