<?xml version="1.0" standalone="no"?>
<!DOCTYPE svg PUBLIC "-//W3C//DTD SVG 20010904//EN"
 "http://www.w3.org/TR/2001/REC-SVG-20010904/DTD/svg10.dtd">
<svg version="1.0" xmlns="http://www.w3.org/2000/svg"
 width="136.000000pt" height="128.000000pt" viewBox="0 0 136.000000 128.000000"
 preserveAspectRatio="xMidYMid meet">

<g transform="translate(0.000000,128.000000) scale(0.100000,-0.100000)"
fill="#000000" stroke="none">
<path d="M352 757 c-70 -74 -1 -204 88 -167 54 22 75 92 45 149 -24 48 -96 58
-133 18z"/>
<path d="M902 773 c-7 -3 -19 -18 -27 -33 -56 -108 61 -208 140 -120 29 33 27
101 -4 134 -24 25 -73 34 -109 19z"/>
<path d="M602 608 c-18 -18 -15 -26 23 -71 22 -25 35 -51 35 -69 0 -21 5 -28
20 -28 16 0 20 7 20 30 0 20 12 43 37 71 51 56 40 73 -53 77 -45 2 -74 -2 -82
-10z"/>
<path d="M87 533 c-19 -18 11 -31 159 -68 79 -19 84 -19 84 4 0 15 -18 23
-105 45 -111 28 -128 30 -138 19z"/>
<path d="M1128 513 c-80 -21 -98 -29 -98 -44 0 -23 5 -23 84 -4 116 29 167 47
163 59 -6 19 -47 16 -149 -11z"/>
<path d="M360 414 c0 -8 9 -32 20 -54 110 -216 460 -226 580 -18 16 29 30 61
30 70 0 15 -6 14 -54 -8 -30 -14 -85 -31 -123 -39 -131 -28 -285 -13 -399 39
-43 20 -54 22 -54 10z m390 -146 c30 -10 32 -12 14 -19 -25 -10 -153 -10 -179
0 -18 7 -17 9 10 19 40 14 115 15 155 0z"/>
<path d="M280 417 c-3 -3 -32 -8 -65 -11 -95 -11 -130 -20 -130 -36 0 -12 13
-14 60 -12 95 6 180 26 180 42 0 14 -35 26 -45 17z"/>
<path d="M1035 411 c-11 -20 3 -27 72 -39 111 -19 168 -19 168 -2 0 14 -31 24
-115 34 -25 4 -61 9 -81 12 -22 3 -40 1 -44 -5z"/>
<path d="M213 293 c-94 -51 -127 -83 -88 -83 15 0 189 84 212 102 14 11 6 38
-11 38 -6 0 -57 -26 -113 -57z"/>
<path d="M1017 336 c-7 -19 0 -24 111 -80 96 -48 122 -55 122 -33 0 13 -195
127 -217 127 -6 0 -13 -6 -16 -14z"/>
</g>
</svg>
