<svg id="visual" viewBox="0 0 900 600" width="900" height="600" xmlns="http://www.w3.org/2000/svg" xmlns:xlink="http://www.w3.org/1999/xlink" version="1.1"><path d="M0 578L6 580.8C12 583.7 24 589.3 36 589.7C48 590 60 585 72 583.8C84 582.7 96 585.3 108 578.7C120 572 132 556 144 550.7C156 545.3 168 550.7 180 557.5C192 564.3 204 572.7 216 571.2C228 569.7 240 558.3 252 560.2C264 562 276 577 288 582C300 587 312 582 324 575C336 568 348 559 360 554.5C372 550 384 550 396 558C408 566 420 582 432 583.8C444 585.7 456 573.3 468 571.8C480 570.3 492 579.7 504 581.8C516 584 528 579 540 574.8C552 570.7 564 567.3 576 567.3C588 567.3 600 570.7 612 574C624 577.3 636 580.7 648 576.3C660 572 672 560 684 561.5C696 563 708 578 720 583.3C732 588.7 744 584.3 756 580.5C768 576.7 780 573.3 792 571.8C804 570.3 816 570.7 828 575.2C840 579.7 852 588.3 864 585.5C876 582.7 888 568.3 894 561.2L900 554L900 601L894 601C888 601 876 601 864 601C852 601 840 601 828 601C816 601 804 601 792 601C780 601 768 601 756 601C744 601 732 601 720 601C708 601 696 601 684 601C672 601 660 601 648 601C636 601 624 601 612 601C600 601 588 601 576 601C564 601 552 601 540 601C528 601 516 601 504 601C492 601 480 601 468 601C456 601 444 601 432 601C420 601 408 601 396 601C384 601 372 601 360 601C348 601 336 601 324 601C312 601 300 601 288 601C276 601 264 601 252 601C240 601 228 601 216 601C204 601 192 601 180 601C168 601 156 601 144 601C132 601 120 601 108 601C96 601 84 601 72 601C60 601 48 601 36 601C24 601 12 601 6 601L0 601Z" fill="#1D1E28" stroke-linecap="round" stroke-linejoin="miter"></path></svg>