<svg id="visual" viewBox="0 0 900 600" width="900" height="600" xmlns="http://www.w3.org/2000/svg" xmlns:xlink="http://www.w3.org/1999/xlink" version="1.1"><path d="M0 553L4.8 557C9.7 561 19.3 569 29 570.7C38.7 572.3 48.3 567.7 58 562C67.7 556.3 77.3 549.7 87 546C96.7 542.3 106.3 541.7 116 549.2C125.7 556.7 135.3 572.3 145 579.3C154.7 586.3 164.3 584.7 174 577.2C183.7 569.7 193.3 556.3 203 555.5C212.7 554.7 222.3 566.3 232 570.5C241.7 574.7 251.3 571.3 261 571.2C270.7 571 280.3 574 290 573.7C299.7 573.3 309.3 569.7 319 565.5C328.7 561.3 338.3 556.7 348 560.5C357.7 564.3 367.3 576.7 377 578.2C386.7 579.7 396.3 570.3 406 570.3C415.7 570.3 425.3 579.7 435.2 582.5C445 585.3 455 581.7 464.8 576.5C474.7 571.3 484.3 564.7 494 563.3C503.7 562 513.3 566 523 570.5C532.7 575 542.3 580 552 575.2C561.7 570.3 571.3 555.7 581 554.5C590.7 553.3 600.3 565.7 610 570.2C619.7 574.7 629.3 571.3 639 565.7C648.7 560 658.3 552 668 554.5C677.7 557 687.3 570 697 576.2C706.7 582.3 716.3 581.7 726 575.8C735.7 570 745.3 559 755 553C764.7 547 774.3 546 784 548.3C793.7 550.7 803.3 556.3 813 564.8C822.7 573.3 832.3 584.7 842 587.7C851.7 590.7 861.3 585.3 871 579.3C880.7 573.3 890.3 566.7 895.2 563.3L900 560L900 601L895.2 601C890.3 601 880.7 601 871 601C861.3 601 851.7 601 842 601C832.3 601 822.7 601 813 601C803.3 601 793.7 601 784 601C774.3 601 764.7 601 755 601C745.3 601 735.7 601 726 601C716.3 601 706.7 601 697 601C687.3 601 677.7 601 668 601C658.3 601 648.7 601 639 601C629.3 601 619.7 601 610 601C600.3 601 590.7 601 581 601C571.3 601 561.7 601 552 601C542.3 601 532.7 601 523 601C513.3 601 503.7 601 494 601C484.3 601 474.7 601 464.8 601C455 601 445 601 435.2 601C425.3 601 415.7 601 406 601C396.3 601 386.7 601 377 601C367.3 601 357.7 601 348 601C338.3 601 328.7 601 319 601C309.3 601 299.7 601 290 601C280.3 601 270.7 601 261 601C251.3 601 241.7 601 232 601C222.3 601 212.7 601 203 601C193.3 601 183.7 601 174 601C164.3 601 154.7 601 145 601C135.3 601 125.7 601 116 601C106.3 601 96.7 601 87 601C77.3 601 67.7 601 58 601C48.3 601 38.7 601 29 601C19.3 601 9.7 601 4.8 601L0 601Z" fill="#F7770F" stroke-linecap="round" stroke-linejoin="miter"></path></svg>